<?xml version="1.0" encoding="UTF-8" standalone="no"?>
<!DOCTYPE svg PUBLIC "-//W3C//DTD SVG 1.1//EN" "http://www.w3.org/Graphics/SVG/1.1/DTD/svg11.dtd">
<svg width="100%" height="100%" viewBox="0 0 128 2688" version="1.1" xmlns="http://www.w3.org/2000/svg" xmlns:xlink="http://www.w3.org/1999/xlink" xml:space="preserve" xmlns:serif="http://www.serif.com/" style="fill-rule:evenodd;clip-rule:evenodd;">
    <g transform="matrix(1,0,0,1,-0.16,1664.10365)">
        <g transform="matrix(1,0,0,1,0,-513.14815)">
            <g>
                <g>
                    <g>
                        <g>
                            <clipPath id="_clip1">
                                <rect x="0.16" y="0" width="127.84" height="129.869"/>
                            </clipPath>
                            <g clip-path="url(#_clip1)">
                                <path d="M126.003,16.234L126.003,113.636C126.003,121.476 119.738,127.84 112.021,127.84L16.141,127.84C8.424,127.84 2.159,121.475 2.159,113.636L2.159,16.234C2.159,8.394 8.424,2.03 16.141,2.03L112.021,2.03C119.738,2.03 126.003,8.395 126.003,16.234Z" style="fill:rgb(54,61,82);stroke:rgb(33,37,50);stroke-width:4.03px;"/>
                                <g>
                                    <path d="M23.059,81.468L23.059,84.85C50.429,109.034 77.8,109.034 105.17,84.85L105.17,81.468L23.059,81.468Z" style="fill:white;fill-rule:nonzero;"/>
                                    <path d="M23.059,81.468L38.392,82.903C39.199,82.971 39.703,83.45 39.905,84.338L40.308,91.204L53.623,92.229L54.43,85.978C54.564,85.227 55.069,84.714 55.943,84.441L72.285,84.441C73.159,84.714 73.664,85.226 73.798,85.978L74.605,92.229L87.92,91.204L88.323,84.338C88.525,83.45 89.029,82.972 89.836,82.903L105.169,81.468L105.169,56.259C107.187,53.594 109.069,50.828 110.818,47.958C108.464,43.927 105.674,40.238 102.446,36.891C99.554,38.257 96.797,39.863 94.174,41.707C91.484,39.179 88.525,36.993 85.297,35.149C85.768,31.665 86.037,28.181 86.104,24.697C82.136,22.784 78,21.35 73.696,20.393C71.948,23.331 70.401,26.371 69.056,29.513C65.761,29.035 62.465,29.035 59.171,29.513C57.826,26.37 56.279,23.33 54.531,20.393C50.227,21.349 46.091,22.784 42.123,24.697C42.19,28.181 42.459,31.665 42.93,35.149C39.702,36.993 36.743,39.18 34.053,41.707C31.43,39.863 28.673,38.257 25.781,36.891C22.553,40.238 19.762,43.928 17.409,47.958C19.157,50.827 21.04,53.594 23.058,56.259L23.058,81.468L23.059,81.468ZM23.059,84.85L23.059,88.847C23.059,117.13 105.07,117.13 105.17,88.847L105.17,84.85L91.653,86.08L91.149,93.151C91.015,93.834 90.544,94.278 89.737,94.483L73.395,95.61C72.588,95.61 72.05,95.234 71.781,94.483L70.772,87.822L57.457,87.822L56.448,94.483C56.179,95.234 55.641,95.61 54.834,95.61L38.492,94.483C37.685,94.278 37.214,93.834 37.08,93.151L36.576,86.08L23.059,84.85Z" style="fill:rgb(71,191,85);fill-rule:nonzero;"/>
                                    <path d="M61.189,73.987C61.189,77.471 67.04,77.471 67.04,73.987L67.04,65.174C67.04,61.69 61.189,61.69 61.189,65.174L61.189,73.987Z" style="fill:white;fill-rule:nonzero;"/>
                                    <ellipse cx="85.6" cy="66.404" rx="9.079" ry="9.223" style="fill:white;"/>
                                    <ellipse cx="42.628" cy="66.404" rx="9.079" ry="9.223" style="fill:white;"/>
                                </g>
                                <g>
                                    <ellipse cx="43.435" cy="67.019" rx="6.052" ry="6.149" style="fill:rgb(65,64,66);"/>
                                    <ellipse cx="84.793" cy="67.019" rx="6.052" ry="6.149" style="fill:rgb(65,64,66);"/>
                                </g>
                            </g>
                        </g>
                    </g>
                </g>
            </g>
        </g>
        <g transform="matrix(1,0,0,1,0,-385.03865)">
            <g>
                <g>
                    <g>
                        <g>
                            <clipPath id="_clip2">
                                <rect x="0.16" y="0" width="127.84" height="129.869"/>
                            </clipPath>
                            <g clip-path="url(#_clip2)">
                                <path d="M126.003,16.234L126.003,113.636C126.003,121.476 119.738,127.84 112.021,127.84L16.141,127.84C8.424,127.84 2.159,121.475 2.159,113.636L2.159,16.234C2.159,8.394 8.424,2.03 16.141,2.03L112.021,2.03C119.738,2.03 126.003,8.395 126.003,16.234Z" style="fill:rgb(54,61,82);stroke:rgb(33,37,50);stroke-width:4.03px;"/>
                                <g>
                                    <path d="M23.059,81.468L23.059,84.85C50.429,109.034 77.8,109.034 105.17,84.85L105.17,81.468L23.059,81.468Z" style="fill:white;fill-rule:nonzero;"/>
                                    <path d="M23.059,81.468L38.392,82.903C39.199,82.971 39.703,83.45 39.905,84.338L40.308,91.204L53.623,92.229L54.43,85.978C54.564,85.227 55.069,84.714 55.943,84.441L72.285,84.441C73.159,84.714 73.664,85.226 73.798,85.978L74.605,92.229L87.92,91.204L88.323,84.338C88.525,83.45 89.029,82.972 89.836,82.903L105.169,81.468L105.169,56.259C107.187,53.594 109.069,50.828 110.818,47.958C108.464,43.927 105.674,40.238 102.446,36.891C99.554,38.257 96.797,39.863 94.174,41.707C91.484,39.179 88.525,36.993 85.297,35.149C85.768,31.665 86.037,28.181 86.104,24.697C82.136,22.784 78,21.35 73.696,20.393C71.948,23.331 70.401,26.371 69.056,29.513C65.761,29.035 62.465,29.035 59.171,29.513C57.826,26.37 56.279,23.33 54.531,20.393C50.227,21.349 46.091,22.784 42.123,24.697C42.19,28.181 42.459,31.665 42.93,35.149C39.702,36.993 36.743,39.18 34.053,41.707C31.43,39.863 28.673,38.257 25.781,36.891C22.553,40.238 19.762,43.928 17.409,47.958C19.157,50.827 21.04,53.594 23.058,56.259L23.058,81.468L23.059,81.468ZM23.059,84.85L23.059,88.847C23.059,117.13 105.07,117.13 105.17,88.847L105.17,84.85L91.653,86.08L91.149,93.151C91.015,93.834 90.544,94.278 89.737,94.483L73.395,95.61C72.588,95.61 72.05,95.234 71.781,94.483L70.772,87.822L57.457,87.822L56.448,94.483C56.179,95.234 55.641,95.61 54.834,95.61L38.492,94.483C37.685,94.278 37.214,93.834 37.08,93.151L36.576,86.08L23.059,84.85Z" style="fill:rgb(71,191,85);fill-rule:nonzero;"/>
                                    <path d="M61.189,73.987C61.189,77.471 67.04,77.471 67.04,73.987L67.04,65.174C67.04,61.69 61.189,61.69 61.189,65.174L61.189,73.987Z" style="fill:white;fill-rule:nonzero;"/>
                                    <ellipse cx="85.6" cy="66.404" rx="9.079" ry="9.223" style="fill:white;"/>
                                    <ellipse cx="42.628" cy="66.404" rx="9.079" ry="9.223" style="fill:white;"/>
                                </g>
                                <g>
                                    <ellipse cx="43.435" cy="67.019" rx="6.052" ry="6.149" style="fill:rgb(65,64,66);"/>
                                    <ellipse cx="84.793" cy="67.019" rx="6.052" ry="6.149" style="fill:rgb(65,64,66);"/>
                                </g>
                            </g>
                        </g>
                    </g>
                </g>
            </g>
        </g>
    </g>
    <g transform="matrix(1,0,0,1,-0.16,2176.13585)">
        <g transform="matrix(1,0,0,1,0,-0.30435)">
            <g>
                <g>
                    <g>
                        <g>
                            <clipPath id="_clip3">
                                <rect x="0.16" y="0" width="127.84" height="129.869"/>
                            </clipPath>
                            <g clip-path="url(#_clip3)">
                                <path d="M126.003,16.234L126.003,113.636C126.003,121.476 119.738,127.84 112.021,127.84L16.141,127.84C8.424,127.84 2.159,121.475 2.159,113.636L2.159,16.234C2.159,8.394 8.424,2.03 16.141,2.03L112.021,2.03C119.738,2.03 126.003,8.395 126.003,16.234Z" style="fill:rgb(54,61,82);stroke:rgb(33,37,50);stroke-width:4.03px;"/>
                                <g>
                                    <path d="M23.059,81.468L23.059,84.85C50.429,109.034 77.8,109.034 105.17,84.85L105.17,81.468L23.059,81.468Z" style="fill:white;fill-rule:nonzero;"/>
                                    <path d="M23.059,81.468L38.392,82.903C39.199,82.971 39.703,83.45 39.905,84.338L40.308,91.204L53.623,92.229L54.43,85.978C54.564,85.227 55.069,84.714 55.943,84.441L72.285,84.441C73.159,84.714 73.664,85.226 73.798,85.978L74.605,92.229L87.92,91.204L88.323,84.338C88.525,83.45 89.029,82.972 89.836,82.903L105.169,81.468L105.169,56.259C107.187,53.594 109.069,50.828 110.818,47.958C108.464,43.927 105.674,40.238 102.446,36.891C99.554,38.257 96.797,39.863 94.174,41.707C91.484,39.179 88.525,36.993 85.297,35.149C85.768,31.665 86.037,28.181 86.104,24.697C82.136,22.784 78,21.35 73.696,20.393C71.948,23.331 70.401,26.371 69.056,29.513C65.761,29.035 62.465,29.035 59.171,29.513C57.826,26.37 56.279,23.33 54.531,20.393C50.227,21.349 46.091,22.784 42.123,24.697C42.19,28.181 42.459,31.665 42.93,35.149C39.702,36.993 36.743,39.18 34.053,41.707C31.43,39.863 28.673,38.257 25.781,36.891C22.553,40.238 19.762,43.928 17.409,47.958C19.157,50.827 21.04,53.594 23.058,56.259L23.058,81.468L23.059,81.468ZM23.059,84.85L23.059,88.847C23.059,117.13 105.07,117.13 105.17,88.847L105.17,84.85L91.653,86.08L91.149,93.151C91.015,93.834 90.544,94.278 89.737,94.483L73.395,95.61C72.588,95.61 72.05,95.234 71.781,94.483L70.772,87.822L57.457,87.822L56.448,94.483C56.179,95.234 55.641,95.61 54.834,95.61L38.492,94.483C37.685,94.278 37.214,93.834 37.08,93.151L36.576,86.08L23.059,84.85Z" style="fill:rgb(71,191,85);fill-rule:nonzero;"/>
                                    <path d="M61.189,73.987C61.189,77.471 67.04,77.471 67.04,73.987L67.04,65.174C67.04,61.69 61.189,61.69 61.189,65.174L61.189,73.987Z" style="fill:white;fill-rule:nonzero;"/>
                                    <ellipse cx="85.6" cy="66.404" rx="9.079" ry="9.223" style="fill:white;"/>
                                    <ellipse cx="42.628" cy="66.404" rx="9.079" ry="9.223" style="fill:white;"/>
                                </g>
                                <g>
                                    <ellipse cx="43.435" cy="67.019" rx="6.052" ry="6.149" style="fill:rgb(65,64,66);"/>
                                    <ellipse cx="84.793" cy="67.019" rx="6.052" ry="6.149" style="fill:rgb(65,64,66);"/>
                                </g>
                            </g>
                        </g>
                    </g>
                </g>
            </g>
        </g>
    </g>
    <g transform="matrix(1,0,0,1,0,1024)">
        <g transform="matrix(1,0,0,1,-0.119,510.833)">
            <path d="M125.962,272.904L125.962,370.306C125.962,378.146 119.697,384.51 111.98,384.51L16.1,384.51C8.383,384.51 2.118,378.145 2.118,370.306L2.118,272.904C2.118,265.064 8.383,258.7 16.1,258.7L111.98,258.7C119.697,258.7 125.962,265.065 125.962,272.904Z" style="fill:rgb(54,61,82);stroke:rgb(33,37,50);stroke-width:4.03px;"/>
            <g>
                <path d="M23.018,338.138L23.018,341.52C50.388,365.704 77.759,365.704 105.129,341.52L105.129,338.138L23.018,338.138Z" style="fill:white;fill-rule:nonzero;"/>
                <path d="M23.018,338.138L38.351,339.573C39.158,339.641 39.662,340.12 39.864,341.008L40.267,347.874L53.582,348.899L54.389,342.648C54.523,341.897 55.028,341.384 55.902,341.111L72.244,341.111C73.118,341.384 73.623,341.896 73.757,342.648L74.564,348.899L87.879,347.874L88.282,341.008C88.484,340.12 88.988,339.642 89.795,339.573L105.128,338.138L105.128,312.929C107.146,310.264 109.028,307.498 110.777,304.629C108.423,300.598 105.633,296.909 102.405,293.562C99.513,294.928 96.756,296.534 94.133,298.378C91.443,295.85 88.484,293.664 85.256,291.82C85.727,288.336 85.996,284.852 86.063,281.368C82.095,279.455 77.959,278.021 73.655,277.064C71.907,280.002 70.36,283.042 69.015,286.184C65.72,285.706 62.424,285.706 59.13,286.184C57.785,283.041 56.238,280.001 54.49,277.064C50.186,278.02 46.05,279.455 42.082,281.368C42.149,284.852 42.418,288.336 42.889,291.82C39.661,293.664 36.702,295.851 34.012,298.378C31.389,296.534 28.632,294.928 25.74,293.562C22.512,296.909 19.721,300.599 17.368,304.629C19.116,307.498 20.999,310.265 23.017,312.929L23.017,338.138L23.018,338.138ZM23.018,341.52L23.018,345.517C23.018,373.8 105.029,373.8 105.129,345.517L105.129,341.52L91.612,342.75L91.108,349.821C90.974,350.504 90.503,350.948 89.696,351.153L73.354,352.28C72.547,352.28 72.009,351.904 71.74,351.153L70.731,344.492L57.416,344.492L56.407,351.153C56.138,351.904 55.6,352.28 54.793,352.28L38.451,351.153C37.644,350.948 37.173,350.504 37.039,349.821L36.535,342.75L23.018,341.52Z" style="fill:rgb(71,140,191);fill-rule:nonzero;"/>
                <path d="M61.148,330.657C61.148,334.141 66.999,334.141 66.999,330.657L66.999,321.844C66.999,318.36 61.148,318.36 61.148,321.844L61.148,330.657Z" style="fill:white;fill-rule:nonzero;"/>
                <ellipse cx="85.559" cy="323.074" rx="9.079" ry="9.223" style="fill:white;"/>
                <ellipse cx="42.587" cy="323.074" rx="9.079" ry="9.223" style="fill:white;"/>
            </g>
            <g>
                <ellipse cx="43.394" cy="323.689" rx="6.052" ry="6.149" style="fill:rgb(65,64,66);"/>
                <ellipse cx="84.752" cy="323.689" rx="6.052" ry="6.149" style="fill:rgb(65,64,66);"/>
            </g>
        </g>
        <g transform="matrix(1,0,0,1,-0.119,1151.3805)">
            <path d="M125.962,272.904L125.962,370.306C125.962,378.146 119.697,384.51 111.98,384.51L16.1,384.51C8.383,384.51 2.118,378.145 2.118,370.306L2.118,272.904C2.118,265.064 8.383,258.7 16.1,258.7L111.98,258.7C119.697,258.7 125.962,265.065 125.962,272.904Z" style="fill:rgb(54,61,82);stroke:rgb(33,37,50);stroke-width:4.03px;"/>
            <g>
                <path d="M23.018,338.138L23.018,341.52C50.388,365.704 77.759,365.704 105.129,341.52L105.129,338.138L23.018,338.138Z" style="fill:white;fill-rule:nonzero;"/>
                <path d="M23.018,338.138L38.351,339.573C39.158,339.641 39.662,340.12 39.864,341.008L40.267,347.874L53.582,348.899L54.389,342.648C54.523,341.897 55.028,341.384 55.902,341.111L72.244,341.111C73.118,341.384 73.623,341.896 73.757,342.648L74.564,348.899L87.879,347.874L88.282,341.008C88.484,340.12 88.988,339.642 89.795,339.573L105.128,338.138L105.128,312.929C107.146,310.264 109.028,307.498 110.777,304.629C108.423,300.598 105.633,296.909 102.405,293.562C99.513,294.928 96.756,296.534 94.133,298.378C91.443,295.85 88.484,293.664 85.256,291.82C85.727,288.336 85.996,284.852 86.063,281.368C82.095,279.455 77.959,278.021 73.655,277.064C71.907,280.002 70.36,283.042 69.015,286.184C65.72,285.706 62.424,285.706 59.13,286.184C57.785,283.041 56.238,280.001 54.49,277.064C50.186,278.02 46.05,279.455 42.082,281.368C42.149,284.852 42.418,288.336 42.889,291.82C39.661,293.664 36.702,295.851 34.012,298.378C31.389,296.534 28.632,294.928 25.74,293.562C22.512,296.909 19.721,300.599 17.368,304.629C19.116,307.498 20.999,310.265 23.017,312.929L23.017,338.138L23.018,338.138ZM23.018,341.52L23.018,345.517C23.018,373.8 105.029,373.8 105.129,345.517L105.129,341.52L91.612,342.75L91.108,349.821C90.974,350.504 90.503,350.948 89.696,351.153L73.354,352.28C72.547,352.28 72.009,351.904 71.74,351.153L70.731,344.492L57.416,344.492L56.407,351.153C56.138,351.904 55.6,352.28 54.793,352.28L38.451,351.153C37.644,350.948 37.173,350.504 37.039,349.821L36.535,342.75L23.018,341.52Z" style="fill:rgb(71,140,191);fill-rule:nonzero;"/>
                <path d="M61.148,330.657C61.148,334.141 66.999,334.141 66.999,330.657L66.999,321.844C66.999,318.36 61.148,318.36 61.148,321.844L61.148,330.657Z" style="fill:white;fill-rule:nonzero;"/>
                <ellipse cx="85.559" cy="323.074" rx="9.079" ry="9.223" style="fill:white;"/>
                <ellipse cx="42.587" cy="323.074" rx="9.079" ry="9.223" style="fill:white;"/>
            </g>
            <g>
                <ellipse cx="43.394" cy="323.689" rx="6.052" ry="6.149" style="fill:rgb(65,64,66);"/>
                <ellipse cx="84.752" cy="323.689" rx="6.052" ry="6.149" style="fill:rgb(65,64,66);"/>
            </g>
        </g>
    </g>
    <g transform="matrix(1,0,0,1,-0.119,1791.4578)">
        <g transform="matrix(1,0,0,1,0,-1025.2818)">
            <path d="M125.962,272.904L125.962,370.306C125.962,378.146 119.697,384.51 111.98,384.51L16.1,384.51C8.383,384.51 2.118,378.145 2.118,370.306L2.118,272.904C2.118,265.064 8.383,258.7 16.1,258.7L111.98,258.7C119.697,258.7 125.962,265.065 125.962,272.904Z" style="fill:rgb(54,61,82);stroke:rgb(33,37,50);stroke-width:4.03px;"/>
            <g>
                <path d="M23.018,338.138L23.018,341.52C50.388,365.704 77.759,365.704 105.129,341.52L105.129,338.138L23.018,338.138Z" style="fill:white;fill-rule:nonzero;"/>
                <path d="M23.018,338.138L38.351,339.573C39.158,339.641 39.662,340.12 39.864,341.008L40.267,347.874L53.582,348.899L54.389,342.648C54.523,341.897 55.028,341.384 55.902,341.111L72.244,341.111C73.118,341.384 73.623,341.896 73.757,342.648L74.564,348.899L87.879,347.874L88.282,341.008C88.484,340.12 88.988,339.642 89.795,339.573L105.128,338.138L105.128,312.929C107.146,310.264 109.028,307.498 110.777,304.629C108.423,300.598 105.633,296.909 102.405,293.562C99.513,294.928 96.756,296.534 94.133,298.378C91.443,295.85 88.484,293.664 85.256,291.82C85.727,288.336 85.996,284.852 86.063,281.368C82.095,279.455 77.959,278.021 73.655,277.064C71.907,280.002 70.36,283.042 69.015,286.184C65.72,285.706 62.424,285.706 59.13,286.184C57.785,283.041 56.238,280.001 54.49,277.064C50.186,278.02 46.05,279.455 42.082,281.368C42.149,284.852 42.418,288.336 42.889,291.82C39.661,293.664 36.702,295.851 34.012,298.378C31.389,296.534 28.632,294.928 25.74,293.562C22.512,296.909 19.721,300.599 17.368,304.629C19.116,307.498 20.999,310.265 23.017,312.929L23.017,338.138L23.018,338.138ZM23.018,341.52L23.018,345.517C23.018,373.8 105.029,373.8 105.129,345.517L105.129,341.52L91.612,342.75L91.108,349.821C90.974,350.504 90.503,350.948 89.696,351.153L73.354,352.28C72.547,352.28 72.009,351.904 71.74,351.153L70.731,344.492L57.416,344.492L56.407,351.153C56.138,351.904 55.6,352.28 54.793,352.28L38.451,351.153C37.644,350.948 37.173,350.504 37.039,349.821L36.535,342.75L23.018,341.52Z" style="fill:rgb(199,206,211);fill-rule:nonzero;"/>
                <path d="M61.148,330.657C61.148,334.141 66.999,334.141 66.999,330.657L66.999,321.844C66.999,318.36 61.148,318.36 61.148,321.844L61.148,330.657Z" style="fill:white;fill-rule:nonzero;"/>
                <ellipse cx="85.559" cy="323.074" rx="9.079" ry="9.223" style="fill:white;"/>
                <ellipse cx="42.587" cy="323.074" rx="9.079" ry="9.223" style="fill:white;"/>
            </g>
            <g>
                <ellipse cx="43.394" cy="323.689" rx="6.052" ry="6.149" style="fill:rgb(65,64,66);"/>
                <ellipse cx="84.752" cy="323.689" rx="6.052" ry="6.149" style="fill:rgb(65,64,66);"/>
            </g>
        </g>
    </g>
    <g transform="matrix(1,0,0,1,-0.119,1023.4095)">
        <g transform="matrix(1,0,0,1,0,-129.08915)">
            <g transform="matrix(1,0,0,1,0,256.18415)">
                <path d="M125.962,272.904L125.962,370.306C125.962,378.146 119.697,384.51 111.98,384.51L16.1,384.51C8.383,384.51 2.118,378.145 2.118,370.306L2.118,272.904C2.118,265.064 8.383,258.7 16.1,258.7L111.98,258.7C119.697,258.7 125.962,265.065 125.962,272.904Z" style="fill:rgb(54,61,82);stroke:rgb(33,37,50);stroke-width:4.03px;"/>
            </g>
            <g transform="matrix(1,0,0,1,0,256.18415)">
                <path d="M23.018,338.138L23.018,341.52C50.388,365.704 77.759,365.704 105.129,341.52L105.129,338.138L23.018,338.138Z" style="fill:white;fill-rule:nonzero;"/>
                <path d="M23.018,338.138L38.351,339.573C39.158,339.641 39.662,340.12 39.864,341.008L40.267,347.874L53.582,348.899L54.389,342.648C54.523,341.897 55.028,341.384 55.902,341.111L72.244,341.111C73.118,341.384 73.623,341.896 73.757,342.648L74.564,348.899L87.879,347.874L88.282,341.008C88.484,340.12 88.988,339.642 89.795,339.573L105.128,338.138L105.128,312.929C107.146,310.264 109.028,307.498 110.777,304.629C108.423,300.598 105.633,296.909 102.405,293.562C99.513,294.928 96.756,296.534 94.133,298.378C91.443,295.85 88.484,293.664 85.256,291.82C85.727,288.336 85.996,284.852 86.063,281.368C82.095,279.455 77.959,278.021 73.655,277.064C71.907,280.002 70.36,283.042 69.015,286.184C65.72,285.706 62.424,285.706 59.13,286.184C57.785,283.041 56.238,280.001 54.49,277.064C50.186,278.02 46.05,279.455 42.082,281.368C42.149,284.852 42.418,288.336 42.889,291.82C39.661,293.664 36.702,295.851 34.012,298.378C31.389,296.534 28.632,294.928 25.74,293.562C22.512,296.909 19.721,300.599 17.368,304.629C19.116,307.498 20.999,310.265 23.017,312.929L23.017,338.138L23.018,338.138ZM23.018,341.52L23.018,345.517C23.018,373.8 105.029,373.8 105.129,345.517L105.129,341.52L91.612,342.75L91.108,349.821C90.974,350.504 90.503,350.948 89.696,351.153L73.354,352.28C72.547,352.28 72.009,351.904 71.74,351.153L70.731,344.492L57.416,344.492L56.407,351.153C56.138,351.904 55.6,352.28 54.793,352.28L38.451,351.153C37.644,350.948 37.173,350.504 37.039,349.821L36.535,342.75L23.018,341.52Z" style="fill:rgb(71,140,191);fill-rule:nonzero;"/>
                <path d="M61.148,330.657C61.148,334.141 66.999,334.141 66.999,330.657L66.999,321.844C66.999,318.36 61.148,318.36 61.148,321.844L61.148,330.657Z" style="fill:white;fill-rule:nonzero;"/>
                <ellipse cx="85.559" cy="323.074" rx="9.079" ry="9.223" style="fill:white;"/>
                <ellipse cx="42.587" cy="323.074" rx="9.079" ry="9.223" style="fill:white;"/>
            </g>
            <g transform="matrix(1,0,0,1,0,256.18415)">
                <ellipse cx="43.394" cy="323.689" rx="6.052" ry="6.149" style="fill:rgb(65,64,66);"/>
                <ellipse cx="84.752" cy="323.689" rx="6.052" ry="6.149" style="fill:rgb(65,64,66);"/>
            </g>
        </g>
    </g>
    <g transform="matrix(1,0,0,1,-0.119,-0.6549)">
        <g transform="matrix(1,0,0,1,0,-129.9356)">
            <path d="M125.962,272.904L125.962,370.306C125.962,378.146 119.697,384.51 111.98,384.51L16.1,384.51C8.383,384.51 2.118,378.145 2.118,370.306L2.118,272.904C2.118,265.064 8.383,258.7 16.1,258.7L111.98,258.7C119.697,258.7 125.962,265.065 125.962,272.904Z" style="fill:rgb(54,61,82);stroke:rgb(33,37,50);stroke-width:4.03px;"/>
            <g>
                <path d="M23.018,338.138L23.018,341.52C50.388,365.704 77.759,365.704 105.129,341.52L105.129,338.138L23.018,338.138Z" style="fill:white;fill-rule:nonzero;"/>
                <path d="M23.018,338.138L38.351,339.573C39.158,339.641 39.662,340.12 39.864,341.008L40.267,347.874L53.582,348.899L54.389,342.648C54.523,341.897 55.028,341.384 55.902,341.111L72.244,341.111C73.118,341.384 73.623,341.896 73.757,342.648L74.564,348.899L87.879,347.874L88.282,341.008C88.484,340.12 88.988,339.642 89.795,339.573L105.128,338.138L105.128,312.929C107.146,310.264 109.028,307.498 110.777,304.629C108.423,300.598 105.633,296.909 102.405,293.562C99.513,294.928 96.756,296.534 94.133,298.378C91.443,295.85 88.484,293.664 85.256,291.82C85.727,288.336 85.996,284.852 86.063,281.368C82.095,279.455 77.959,278.021 73.655,277.064C71.907,280.002 70.36,283.042 69.015,286.184C65.72,285.706 62.424,285.706 59.13,286.184C57.785,283.041 56.238,280.001 54.49,277.064C50.186,278.02 46.05,279.455 42.082,281.368C42.149,284.852 42.418,288.336 42.889,291.82C39.661,293.664 36.702,295.851 34.012,298.378C31.389,296.534 28.632,294.928 25.74,293.562C22.512,296.909 19.721,300.599 17.368,304.629C19.116,307.498 20.999,310.265 23.017,312.929L23.017,338.138L23.018,338.138ZM23.018,341.52L23.018,345.517C23.018,373.8 105.029,373.8 105.129,345.517L105.129,341.52L91.612,342.75L91.108,349.821C90.974,350.504 90.503,350.948 89.696,351.153L73.354,352.28C72.547,352.28 72.009,351.904 71.74,351.153L70.731,344.492L57.416,344.492L56.407,351.153C56.138,351.904 55.6,352.28 54.793,352.28L38.451,351.153C37.644,350.948 37.173,350.504 37.039,349.821L36.535,342.75L23.018,341.52Z" style="fill:rgb(71,140,191);fill-rule:nonzero;"/>
                <path d="M61.148,330.657C61.148,334.141 66.999,334.141 66.999,330.657L66.999,321.844C66.999,318.36 61.148,318.36 61.148,321.844L61.148,330.657Z" style="fill:white;fill-rule:nonzero;"/>
                <ellipse cx="85.559" cy="323.074" rx="9.079" ry="9.223" style="fill:white;"/>
                <ellipse cx="42.587" cy="323.074" rx="9.079" ry="9.223" style="fill:white;"/>
            </g>
            <g>
                <ellipse cx="43.394" cy="323.689" rx="6.052" ry="6.149" style="fill:rgb(65,64,66);"/>
                <ellipse cx="84.752" cy="323.689" rx="6.052" ry="6.149" style="fill:rgb(65,64,66);"/>
            </g>
        </g>
        <g transform="matrix(1,0,0,1,0,510.6119)">
            <path d="M125.962,272.904L125.962,370.306C125.962,378.146 119.697,384.51 111.98,384.51L16.1,384.51C8.383,384.51 2.118,378.145 2.118,370.306L2.118,272.904C2.118,265.064 8.383,258.7 16.1,258.7L111.98,258.7C119.697,258.7 125.962,265.065 125.962,272.904Z" style="fill:rgb(54,61,82);stroke:rgb(33,37,50);stroke-width:4.03px;"/>
            <g>
                <path d="M23.018,338.138L23.018,341.52C50.388,365.704 77.759,365.704 105.129,341.52L105.129,338.138L23.018,338.138Z" style="fill:white;fill-rule:nonzero;"/>
                <path d="M23.018,338.138L38.351,339.573C39.158,339.641 39.662,340.12 39.864,341.008L40.267,347.874L53.582,348.899L54.389,342.648C54.523,341.897 55.028,341.384 55.902,341.111L72.244,341.111C73.118,341.384 73.623,341.896 73.757,342.648L74.564,348.899L87.879,347.874L88.282,341.008C88.484,340.12 88.988,339.642 89.795,339.573L105.128,338.138L105.128,312.929C107.146,310.264 109.028,307.498 110.777,304.629C108.423,300.598 105.633,296.909 102.405,293.562C99.513,294.928 96.756,296.534 94.133,298.378C91.443,295.85 88.484,293.664 85.256,291.82C85.727,288.336 85.996,284.852 86.063,281.368C82.095,279.455 77.959,278.021 73.655,277.064C71.907,280.002 70.36,283.042 69.015,286.184C65.72,285.706 62.424,285.706 59.13,286.184C57.785,283.041 56.238,280.001 54.49,277.064C50.186,278.02 46.05,279.455 42.082,281.368C42.149,284.852 42.418,288.336 42.889,291.82C39.661,293.664 36.702,295.851 34.012,298.378C31.389,296.534 28.632,294.928 25.74,293.562C22.512,296.909 19.721,300.599 17.368,304.629C19.116,307.498 20.999,310.265 23.017,312.929L23.017,338.138L23.018,338.138ZM23.018,341.52L23.018,345.517C23.018,373.8 105.029,373.8 105.129,345.517L105.129,341.52L91.612,342.75L91.108,349.821C90.974,350.504 90.503,350.948 89.696,351.153L73.354,352.28C72.547,352.28 72.009,351.904 71.74,351.153L70.731,344.492L57.416,344.492L56.407,351.153C56.138,351.904 55.6,352.28 54.793,352.28L38.451,351.153C37.644,350.948 37.173,350.504 37.039,349.821L36.535,342.75L23.018,341.52Z" style="fill:rgb(71,140,191);fill-rule:nonzero;"/>
                <path d="M61.148,330.657C61.148,334.141 66.999,334.141 66.999,330.657L66.999,321.844C66.999,318.36 61.148,318.36 61.148,321.844L61.148,330.657Z" style="fill:white;fill-rule:nonzero;"/>
                <ellipse cx="85.559" cy="323.074" rx="9.079" ry="9.223" style="fill:white;"/>
                <ellipse cx="42.587" cy="323.074" rx="9.079" ry="9.223" style="fill:white;"/>
            </g>
            <g>
                <ellipse cx="43.394" cy="323.689" rx="6.052" ry="6.149" style="fill:rgb(65,64,66);"/>
                <ellipse cx="84.752" cy="323.689" rx="6.052" ry="6.149" style="fill:rgb(65,64,66);"/>
            </g>
        </g>
    </g>
    <g transform="matrix(1,0,0,1,-0.119,255.3612)">
        <g transform="matrix(1,0,0,1,0,-1.6232)">
            <path d="M125.962,272.904L125.962,370.306C125.962,378.146 119.697,384.51 111.98,384.51L16.1,384.51C8.383,384.51 2.118,378.145 2.118,370.306L2.118,272.904C2.118,265.064 8.383,258.7 16.1,258.7L111.98,258.7C119.697,258.7 125.962,265.065 125.962,272.904Z" style="fill:rgb(54,61,82);stroke:rgb(33,37,50);stroke-width:4.03px;"/>
            <g>
                <path d="M23.018,338.138L23.018,341.52C50.388,365.704 77.759,365.704 105.129,341.52L105.129,338.138L23.018,338.138Z" style="fill:white;fill-rule:nonzero;"/>
                <path d="M23.018,338.138L38.351,339.573C39.158,339.641 39.662,340.12 39.864,341.008L40.267,347.874L53.582,348.899L54.389,342.648C54.523,341.897 55.028,341.384 55.902,341.111L72.244,341.111C73.118,341.384 73.623,341.896 73.757,342.648L74.564,348.899L87.879,347.874L88.282,341.008C88.484,340.12 88.988,339.642 89.795,339.573L105.128,338.138L105.128,312.929C107.146,310.264 109.028,307.498 110.777,304.629C108.423,300.598 105.633,296.909 102.405,293.562C99.513,294.928 96.756,296.534 94.133,298.378C91.443,295.85 88.484,293.664 85.256,291.82C85.727,288.336 85.996,284.852 86.063,281.368C82.095,279.455 77.959,278.021 73.655,277.064C71.907,280.002 70.36,283.042 69.015,286.184C65.72,285.706 62.424,285.706 59.13,286.184C57.785,283.041 56.238,280.001 54.49,277.064C50.186,278.02 46.05,279.455 42.082,281.368C42.149,284.852 42.418,288.336 42.889,291.82C39.661,293.664 36.702,295.851 34.012,298.378C31.389,296.534 28.632,294.928 25.74,293.562C22.512,296.909 19.721,300.599 17.368,304.629C19.116,307.498 20.999,310.265 23.017,312.929L23.017,338.138L23.018,338.138ZM23.018,341.52L23.018,345.517C23.018,373.8 105.029,373.8 105.129,345.517L105.129,341.52L91.612,342.75L91.108,349.821C90.974,350.504 90.503,350.948 89.696,351.153L73.354,352.28C72.547,352.28 72.009,351.904 71.74,351.153L70.731,344.492L57.416,344.492L56.407,351.153C56.138,351.904 55.6,352.28 54.793,352.28L38.451,351.153C37.644,350.948 37.173,350.504 37.039,349.821L36.535,342.75L23.018,341.52Z" style="fill:rgb(26,28,229);fill-rule:nonzero;"/>
                <path d="M61.148,330.657C61.148,334.141 66.999,334.141 66.999,330.657L66.999,321.844C66.999,318.36 61.148,318.36 61.148,321.844L61.148,330.657Z" style="fill:white;fill-rule:nonzero;"/>
                <ellipse cx="85.559" cy="323.074" rx="9.079" ry="9.223" style="fill:white;"/>
                <ellipse cx="42.587" cy="323.074" rx="9.079" ry="9.223" style="fill:white;"/>
            </g>
            <g>
                <ellipse cx="43.394" cy="323.689" rx="6.052" ry="6.149" style="fill:rgb(215,25,18);"/>
                <ellipse cx="84.752" cy="323.689" rx="6.052" ry="6.149" style="fill:rgb(215,25,18);"/>
            </g>
        </g>
    </g>
    <g transform="matrix(1,0,0,1,0,1024)">
        <g transform="matrix(1,0,0,1,-2.078,509.701838)">
            <g transform="matrix(1,0,0,1,1.999,-126.256838)">
                <path d="M125.922,144.073L125.922,241.475C125.922,249.315 119.657,255.679 111.94,255.679L16.06,255.679C8.343,255.679 2.078,249.314 2.078,241.475L2.078,144.073C2.078,136.233 8.343,129.869 16.06,129.869L111.94,129.869C119.657,129.869 125.922,136.234 125.922,144.073Z" style="fill:rgb(54,61,82);stroke:rgb(33,37,50);stroke-width:4.03px;"/>
                <g>
                    <path d="M22.978,209.307L22.978,212.689C50.348,236.873 77.719,236.873 105.089,212.689L105.089,209.307L22.978,209.307Z" style="fill:white;fill-rule:nonzero;"/>
                    <path d="M22.978,209.307L38.311,210.742C39.118,210.81 39.622,211.289 39.824,212.177L40.227,219.043L53.542,220.068L54.349,213.817C54.483,213.066 54.988,212.553 55.862,212.28L72.204,212.28C73.078,212.553 73.583,213.065 73.717,213.817L74.524,220.068L87.839,219.043L88.242,212.177C88.444,211.289 88.948,210.811 89.755,210.742L105.088,209.307L105.088,184.098C107.106,181.433 108.988,178.667 110.737,175.798C108.383,171.767 105.593,168.078 102.365,164.731C99.473,166.097 96.716,167.703 94.093,169.547C91.403,167.019 88.444,164.833 85.216,162.989C85.687,159.505 85.956,156.021 86.023,152.537C82.055,150.624 77.919,149.19 73.615,148.233C71.867,151.171 70.32,154.211 68.975,157.353C65.68,156.875 62.384,156.875 59.09,157.353C57.745,154.21 56.198,151.17 54.45,148.233C50.146,149.189 46.01,150.624 42.042,152.537C42.109,156.021 42.378,159.505 42.849,162.989C39.621,164.833 36.662,167.02 33.972,169.547C31.349,167.703 28.592,166.097 25.7,164.731C22.472,168.078 19.681,171.768 17.328,175.798C19.076,178.667 20.959,181.434 22.977,184.098L22.977,209.307L22.978,209.307ZM22.978,212.689L22.978,216.686C22.978,244.969 104.989,244.969 105.089,216.686L105.089,212.689L91.572,213.919L91.068,220.99C90.934,221.673 90.463,222.117 89.656,222.322L73.314,223.449C72.507,223.449 71.969,223.073 71.7,222.322L70.691,215.661L57.376,215.661L56.367,222.322C56.098,223.073 55.56,223.449 54.753,223.449L38.411,222.322C37.604,222.117 37.133,221.673 36.999,220.99L36.495,213.919L22.978,212.689Z" style="fill:rgb(236,220,37);fill-rule:nonzero;"/>
                    <path d="M61.108,201.826C61.108,205.31 66.959,205.31 66.959,201.826L66.959,193.013C66.959,189.529 61.108,189.529 61.108,193.013L61.108,201.826Z" style="fill:white;fill-rule:nonzero;"/>
                    <ellipse cx="85.519" cy="194.243" rx="9.079" ry="9.223" style="fill:white;"/>
                    <ellipse cx="42.547" cy="194.243" rx="9.079" ry="9.223" style="fill:white;"/>
                </g>
                <g>
                    <ellipse cx="43.354" cy="194.858" rx="6.052" ry="6.149" style="fill:rgb(65,64,66);"/>
                    <ellipse cx="84.712" cy="194.858" rx="6.052" ry="6.149" style="fill:rgb(65,64,66);"/>
                </g>
            </g>
        </g>
        <g transform="matrix(1,0,0,1,-0.079,-257.1025)">
            <path d="M125.922,144.073L125.922,241.475C125.922,249.315 119.657,255.679 111.94,255.679L16.06,255.679C8.343,255.679 2.078,249.314 2.078,241.475L2.078,144.073C2.078,136.233 8.343,129.869 16.06,129.869L111.94,129.869C119.657,129.869 125.922,136.234 125.922,144.073Z" style="fill:rgb(54,61,82);stroke:rgb(33,37,50);stroke-width:4.03px;"/>
            <g>
                <path d="M22.978,209.307L22.978,212.689C50.348,236.873 77.719,236.873 105.089,212.689L105.089,209.307L22.978,209.307Z" style="fill:white;fill-rule:nonzero;"/>
                <path d="M22.978,209.307L38.311,210.742C39.118,210.81 39.622,211.289 39.824,212.177L40.227,219.043L53.542,220.068L54.349,213.817C54.483,213.066 54.988,212.553 55.862,212.28L72.204,212.28C73.078,212.553 73.583,213.065 73.717,213.817L74.524,220.068L87.839,219.043L88.242,212.177C88.444,211.289 88.948,210.811 89.755,210.742L105.088,209.307L105.088,184.098C107.106,181.433 108.988,178.667 110.737,175.798C108.383,171.767 105.593,168.078 102.365,164.731C99.473,166.097 96.716,167.703 94.093,169.547C91.403,167.019 88.444,164.833 85.216,162.989C85.687,159.505 85.956,156.021 86.023,152.537C82.055,150.624 77.919,149.19 73.615,148.233C71.867,151.171 70.32,154.211 68.975,157.353C65.68,156.875 62.384,156.875 59.09,157.353C57.745,154.21 56.198,151.17 54.45,148.233C50.146,149.189 46.01,150.624 42.042,152.537C42.109,156.021 42.378,159.505 42.849,162.989C39.621,164.833 36.662,167.02 33.972,169.547C31.349,167.703 28.592,166.097 25.7,164.731C22.472,168.078 19.681,171.768 17.328,175.798C19.076,178.667 20.959,181.434 22.977,184.098L22.977,209.307L22.978,209.307ZM22.978,212.689L22.978,216.686C22.978,244.969 104.989,244.969 105.089,216.686L105.089,212.689L91.572,213.919L91.068,220.99C90.934,221.673 90.463,222.117 89.656,222.322L73.314,223.449C72.507,223.449 71.969,223.073 71.7,222.322L70.691,215.661L57.376,215.661L56.367,222.322C56.098,223.073 55.56,223.449 54.753,223.449L38.411,222.322C37.604,222.117 37.133,221.673 36.999,220.99L36.495,213.919L22.978,212.689Z" style="fill:rgb(236,220,37);fill-rule:nonzero;"/>
                <path d="M61.108,201.826C61.108,205.31 66.959,205.31 66.959,201.826L66.959,193.013C66.959,189.529 61.108,189.529 61.108,193.013L61.108,201.826Z" style="fill:white;fill-rule:nonzero;"/>
                <ellipse cx="85.519" cy="194.243" rx="9.079" ry="9.223" style="fill:white;"/>
                <ellipse cx="42.547" cy="194.243" rx="9.079" ry="9.223" style="fill:white;"/>
            </g>
            <g>
                <ellipse cx="43.354" cy="194.858" rx="6.052" ry="6.149" style="fill:rgb(65,64,66);"/>
                <ellipse cx="84.712" cy="194.858" rx="6.052" ry="6.149" style="fill:rgb(65,64,66);"/>
            </g>
        </g>
        <g transform="matrix(1,0,0,1,-0.079,-897.65)">
            <path d="M125.922,144.073L125.922,241.475C125.922,249.315 119.657,255.679 111.94,255.679L16.06,255.679C8.343,255.679 2.078,249.314 2.078,241.475L2.078,144.073C2.078,136.233 8.343,129.869 16.06,129.869L111.94,129.869C119.657,129.869 125.922,136.234 125.922,144.073Z" style="fill:rgb(54,61,82);stroke:rgb(33,37,50);stroke-width:4.03px;"/>
            <g>
                <path d="M22.978,209.307L22.978,212.689C50.348,236.873 77.719,236.873 105.089,212.689L105.089,209.307L22.978,209.307Z" style="fill:white;fill-rule:nonzero;"/>
                <path d="M22.978,209.307L38.311,210.742C39.118,210.81 39.622,211.289 39.824,212.177L40.227,219.043L53.542,220.068L54.349,213.817C54.483,213.066 54.988,212.553 55.862,212.28L72.204,212.28C73.078,212.553 73.583,213.065 73.717,213.817L74.524,220.068L87.839,219.043L88.242,212.177C88.444,211.289 88.948,210.811 89.755,210.742L105.088,209.307L105.088,184.098C107.106,181.433 108.988,178.667 110.737,175.798C108.383,171.767 105.593,168.078 102.365,164.731C99.473,166.097 96.716,167.703 94.093,169.547C91.403,167.019 88.444,164.833 85.216,162.989C85.687,159.505 85.956,156.021 86.023,152.537C82.055,150.624 77.919,149.19 73.615,148.233C71.867,151.171 70.32,154.211 68.975,157.353C65.68,156.875 62.384,156.875 59.09,157.353C57.745,154.21 56.198,151.17 54.45,148.233C50.146,149.189 46.01,150.624 42.042,152.537C42.109,156.021 42.378,159.505 42.849,162.989C39.621,164.833 36.662,167.02 33.972,169.547C31.349,167.703 28.592,166.097 25.7,164.731C22.472,168.078 19.681,171.768 17.328,175.798C19.076,178.667 20.959,181.434 22.977,184.098L22.977,209.307L22.978,209.307ZM22.978,212.689L22.978,216.686C22.978,244.969 104.989,244.969 105.089,216.686L105.089,212.689L91.572,213.919L91.068,220.99C90.934,221.673 90.463,222.117 89.656,222.322L73.314,223.449C72.507,223.449 71.969,223.073 71.7,222.322L70.691,215.661L57.376,215.661L56.367,222.322C56.098,223.073 55.56,223.449 54.753,223.449L38.411,222.322C37.604,222.117 37.133,221.673 36.999,220.99L36.495,213.919L22.978,212.689Z" style="fill:rgb(236,220,37);fill-rule:nonzero;"/>
                <path d="M61.108,201.826C61.108,205.31 66.959,205.31 66.959,201.826L66.959,193.013C66.959,189.529 61.108,189.529 61.108,193.013L61.108,201.826Z" style="fill:white;fill-rule:nonzero;"/>
                <ellipse cx="85.519" cy="194.243" rx="9.079" ry="9.223" style="fill:white;"/>
                <ellipse cx="42.547" cy="194.243" rx="9.079" ry="9.223" style="fill:white;"/>
            </g>
            <g>
                <ellipse cx="43.354" cy="194.858" rx="6.052" ry="6.149" style="fill:rgb(65,64,66);"/>
                <ellipse cx="84.712" cy="194.858" rx="6.052" ry="6.149" style="fill:rgb(65,64,66);"/>
            </g>
        </g>
    </g>
    <g transform="matrix(1,0,0,1,-0.079,1664.2727)">
        <g transform="matrix(1,0,0,1,0,127.5008)">
            <path d="M125.922,144.073L125.922,241.475C125.922,249.315 119.657,255.679 111.94,255.679L16.06,255.679C8.343,255.679 2.078,249.314 2.078,241.475L2.078,144.073C2.078,136.233 8.343,129.869 16.06,129.869L111.94,129.869C119.657,129.869 125.922,136.234 125.922,144.073Z" style="fill:rgb(54,61,82);stroke:rgb(33,37,50);stroke-width:4.03px;"/>
            <g>
                <path d="M22.978,209.307L22.978,212.689C50.348,236.873 77.719,236.873 105.089,212.689L105.089,209.307L22.978,209.307Z" style="fill:white;fill-rule:nonzero;"/>
                <path d="M22.978,209.307L38.311,210.742C39.118,210.81 39.622,211.289 39.824,212.177L40.227,219.043L53.542,220.068L54.349,213.817C54.483,213.066 54.988,212.553 55.862,212.28L72.204,212.28C73.078,212.553 73.583,213.065 73.717,213.817L74.524,220.068L87.839,219.043L88.242,212.177C88.444,211.289 88.948,210.811 89.755,210.742L105.088,209.307L105.088,184.098C107.106,181.433 108.988,178.667 110.737,175.798C108.383,171.767 105.593,168.078 102.365,164.731C99.473,166.097 96.716,167.703 94.093,169.547C91.403,167.019 88.444,164.833 85.216,162.989C85.687,159.505 85.956,156.021 86.023,152.537C82.055,150.624 77.919,149.19 73.615,148.233C71.867,151.171 70.32,154.211 68.975,157.353C65.68,156.875 62.384,156.875 59.09,157.353C57.745,154.21 56.198,151.17 54.45,148.233C50.146,149.189 46.01,150.624 42.042,152.537C42.109,156.021 42.378,159.505 42.849,162.989C39.621,164.833 36.662,167.02 33.972,169.547C31.349,167.703 28.592,166.097 25.7,164.731C22.472,168.078 19.681,171.768 17.328,175.798C19.076,178.667 20.959,181.434 22.977,184.098L22.977,209.307L22.978,209.307ZM22.978,212.689L22.978,216.686C22.978,244.969 104.989,244.969 105.089,216.686L105.089,212.689L91.572,213.919L91.068,220.99C90.934,221.673 90.463,222.117 89.656,222.322L73.314,223.449C72.507,223.449 71.969,223.073 71.7,222.322L70.691,215.661L57.376,215.661L56.367,222.322C56.098,223.073 55.56,223.449 54.753,223.449L38.411,222.322C37.604,222.117 37.133,221.673 36.999,220.99L36.495,213.919L22.978,212.689Z" style="fill:rgb(236,220,37);fill-rule:nonzero;"/>
                <path d="M61.108,201.826C61.108,205.31 66.959,205.31 66.959,201.826L66.959,193.013C66.959,189.529 61.108,189.529 61.108,193.013L61.108,201.826Z" style="fill:white;fill-rule:nonzero;"/>
                <ellipse cx="85.519" cy="194.243" rx="9.079" ry="9.223" style="fill:white;"/>
                <ellipse cx="42.547" cy="194.243" rx="9.079" ry="9.223" style="fill:white;"/>
            </g>
            <g>
                <ellipse cx="43.354" cy="194.858" rx="6.052" ry="6.149" style="fill:rgb(65,64,66);"/>
                <ellipse cx="84.712" cy="194.858" rx="6.052" ry="6.149" style="fill:rgb(65,64,66);"/>
            </g>
        </g>
    </g>
    <g transform="matrix(1,0,0,1,-0.079,2176.3049)">
        <g transform="matrix(1,0,0,1,0,256.0161)">
            <path d="M125.922,144.073L125.922,241.475C125.922,249.315 119.657,255.679 111.94,255.679L16.06,255.679C8.343,255.679 2.078,249.314 2.078,241.475L2.078,144.073C2.078,136.233 8.343,129.869 16.06,129.869L111.94,129.869C119.657,129.869 125.922,136.234 125.922,144.073Z" style="fill:rgb(54,61,82);stroke:rgb(33,37,50);stroke-width:4.03px;"/>
            <g>
                <path d="M22.978,209.307L22.978,212.689C50.348,236.873 77.719,236.873 105.089,212.689L105.089,209.307L22.978,209.307Z" style="fill:white;fill-rule:nonzero;"/>
                <path d="M22.978,209.307L38.311,210.742C39.118,210.81 39.622,211.289 39.824,212.177L40.227,219.043L53.542,220.068L54.349,213.817C54.483,213.066 54.988,212.553 55.862,212.28L72.204,212.28C73.078,212.553 73.583,213.065 73.717,213.817L74.524,220.068L87.839,219.043L88.242,212.177C88.444,211.289 88.948,210.811 89.755,210.742L105.088,209.307L105.088,184.098C107.106,181.433 108.988,178.667 110.737,175.798C108.383,171.767 105.593,168.078 102.365,164.731C99.473,166.097 96.716,167.703 94.093,169.547C91.403,167.019 88.444,164.833 85.216,162.989C85.687,159.505 85.956,156.021 86.023,152.537C82.055,150.624 77.919,149.19 73.615,148.233C71.867,151.171 70.32,154.211 68.975,157.353C65.68,156.875 62.384,156.875 59.09,157.353C57.745,154.21 56.198,151.17 54.45,148.233C50.146,149.189 46.01,150.624 42.042,152.537C42.109,156.021 42.378,159.505 42.849,162.989C39.621,164.833 36.662,167.02 33.972,169.547C31.349,167.703 28.592,166.097 25.7,164.731C22.472,168.078 19.681,171.768 17.328,175.798C19.076,178.667 20.959,181.434 22.977,184.098L22.977,209.307L22.978,209.307ZM22.978,212.689L22.978,216.686C22.978,244.969 104.989,244.969 105.089,216.686L105.089,212.689L91.572,213.919L91.068,220.99C90.934,221.673 90.463,222.117 89.656,222.322L73.314,223.449C72.507,223.449 71.969,223.073 71.7,222.322L70.691,215.661L57.376,215.661L56.367,222.322C56.098,223.073 55.56,223.449 54.753,223.449L38.411,222.322C37.604,222.117 37.133,221.673 36.999,220.99L36.495,213.919L22.978,212.689Z" style="fill:rgb(236,220,37);fill-rule:nonzero;"/>
                <path d="M61.108,201.826C61.108,205.31 66.959,205.31 66.959,201.826L66.959,193.013C66.959,189.529 61.108,189.529 61.108,193.013L61.108,201.826Z" style="fill:white;fill-rule:nonzero;"/>
                <ellipse cx="85.519" cy="194.243" rx="9.079" ry="9.223" style="fill:white;"/>
                <ellipse cx="42.547" cy="194.243" rx="9.079" ry="9.223" style="fill:white;"/>
            </g>
            <g>
                <ellipse cx="43.354" cy="194.858" rx="6.052" ry="6.149" style="fill:rgb(65,64,66);"/>
                <ellipse cx="84.712" cy="194.858" rx="6.052" ry="6.149" style="fill:rgb(65,64,66);"/>
            </g>
        </g>
    </g>
    <g transform="matrix(1,0,0,1,0,1024)">
        <g transform="matrix(1,0,0,1,-0.2,641.242)">
            <path d="M126.043,398.714L126.043,496.116C126.043,503.956 119.778,510.32 112.061,510.32L16.181,510.32C8.464,510.32 2.199,503.955 2.199,496.116L2.199,398.714C2.199,390.874 8.464,384.51 16.181,384.51L112.061,384.51C119.778,384.51 126.043,390.875 126.043,398.714Z" style="fill:rgb(54,61,82);stroke:rgb(33,37,50);stroke-width:4.03px;"/>
            <g>
                <path d="M23.099,463.948L23.099,467.33C50.469,491.514 77.84,491.514 105.21,467.33L105.21,463.948L23.099,463.948Z" style="fill:white;fill-rule:nonzero;"/>
                <path d="M23.099,463.948L38.432,465.383C39.239,465.451 39.743,465.93 39.945,466.818L40.348,473.684L53.663,474.709L54.47,468.458C54.604,467.707 55.109,467.194 55.983,466.921L72.325,466.921C73.199,467.194 73.704,467.706 73.838,468.458L74.645,474.709L87.96,473.684L88.363,466.818C88.565,465.93 89.069,465.452 89.876,465.383L105.209,463.948L105.209,438.739C107.227,436.074 109.109,433.308 110.858,430.439C108.504,426.408 105.714,422.719 102.486,419.372C99.594,420.738 96.837,422.344 94.214,424.188C91.524,421.66 88.565,419.474 85.337,417.63C85.808,414.146 86.077,410.662 86.144,407.178C82.176,405.265 78.04,403.831 73.736,402.874C71.988,405.812 70.441,408.852 69.096,411.994C65.801,411.516 62.505,411.516 59.211,411.994C57.866,408.851 56.319,405.811 54.571,402.874C50.267,403.83 46.131,405.265 42.163,407.178C42.23,410.662 42.499,414.146 42.97,417.63C39.742,419.474 36.783,421.661 34.093,424.188C31.47,422.344 28.713,420.738 25.821,419.372C22.593,422.719 19.802,426.409 17.449,430.439C19.197,433.308 21.08,436.075 23.098,438.739L23.098,463.948L23.099,463.948ZM23.099,467.33L23.099,471.327C23.099,499.61 105.11,499.61 105.21,471.327L105.21,467.33L91.693,468.56L91.189,475.631C91.055,476.314 90.584,476.758 89.777,476.963L73.435,478.09C72.628,478.09 72.09,477.714 71.821,476.963L70.812,470.302L57.497,470.302L56.488,476.963C56.219,477.714 55.681,478.09 54.874,478.09L38.532,476.963C37.725,476.758 37.254,476.314 37.12,475.631L36.616,468.56L23.099,467.33Z" style="fill-rule:nonzero;"/>
                <path d="M61.229,456.467C61.229,459.951 67.08,459.951 67.08,456.467L67.08,447.654C67.08,444.17 61.229,444.17 61.229,447.654L61.229,456.467Z" style="fill:white;fill-rule:nonzero;"/>
                <ellipse cx="85.639" cy="448.884" rx="9.079" ry="9.223" style="fill:white;"/>
                <ellipse cx="42.668" cy="448.884" rx="9.079" ry="9.223" style="fill:white;"/>
            </g>
            <g>
                <ellipse cx="43.475" cy="449.499" rx="6.052" ry="6.149" style="fill:rgb(65,64,66);"/>
                <ellipse cx="84.833" cy="449.499" rx="6.052" ry="6.149" style="fill:rgb(65,64,66);"/>
            </g>
        </g>
        <g transform="matrix(1,0,0,1,-0.2,897.461)">
            <path d="M126.043,398.714L126.043,496.116C126.043,503.956 119.778,510.32 112.061,510.32L16.181,510.32C8.464,510.32 2.199,503.955 2.199,496.116L2.199,398.714C2.199,390.874 8.464,384.51 16.181,384.51L112.061,384.51C119.778,384.51 126.043,390.875 126.043,398.714Z" style="fill:rgb(54,61,82);stroke:rgb(33,37,50);stroke-width:4.03px;"/>
            <g>
                <path d="M23.099,463.948L23.099,467.33C50.469,491.514 77.84,491.514 105.21,467.33L105.21,463.948L23.099,463.948Z" style="fill:white;fill-rule:nonzero;"/>
                <path d="M23.099,463.948L38.432,465.383C39.239,465.451 39.743,465.93 39.945,466.818L40.348,473.684L53.663,474.709L54.47,468.458C54.604,467.707 55.109,467.194 55.983,466.921L72.325,466.921C73.199,467.194 73.704,467.706 73.838,468.458L74.645,474.709L87.96,473.684L88.363,466.818C88.565,465.93 89.069,465.452 89.876,465.383L105.209,463.948L105.209,438.739C107.227,436.074 109.109,433.308 110.858,430.439C108.504,426.408 105.714,422.719 102.486,419.372C99.594,420.738 96.837,422.344 94.214,424.188C91.524,421.66 88.565,419.474 85.337,417.63C85.808,414.146 86.077,410.662 86.144,407.178C82.176,405.265 78.04,403.831 73.736,402.874C71.988,405.812 70.441,408.852 69.096,411.994C65.801,411.516 62.505,411.516 59.211,411.994C57.866,408.851 56.319,405.811 54.571,402.874C50.267,403.83 46.131,405.265 42.163,407.178C42.23,410.662 42.499,414.146 42.97,417.63C39.742,419.474 36.783,421.661 34.093,424.188C31.47,422.344 28.713,420.738 25.821,419.372C22.593,422.719 19.802,426.409 17.449,430.439C19.197,433.308 21.08,436.075 23.098,438.739L23.098,463.948L23.099,463.948ZM23.099,467.33L23.099,471.327C23.099,499.61 105.11,499.61 105.21,471.327L105.21,467.33L91.693,468.56L91.189,475.631C91.055,476.314 90.584,476.758 89.777,476.963L73.435,478.09C72.628,478.09 72.09,477.714 71.821,476.963L70.812,470.302L57.497,470.302L56.488,476.963C56.219,477.714 55.681,478.09 54.874,478.09L38.532,476.963C37.725,476.758 37.254,476.314 37.12,475.631L36.616,468.56L23.099,467.33Z" style="fill-rule:nonzero;"/>
                <path d="M61.229,456.467C61.229,459.951 67.08,459.951 67.08,456.467L67.08,447.654C67.08,444.17 61.229,444.17 61.229,447.654L61.229,456.467Z" style="fill:white;fill-rule:nonzero;"/>
                <ellipse cx="85.639" cy="448.884" rx="9.079" ry="9.223" style="fill:white;"/>
                <ellipse cx="42.668" cy="448.884" rx="9.079" ry="9.223" style="fill:white;"/>
            </g>
            <g>
                <ellipse cx="43.475" cy="449.499" rx="6.052" ry="6.149" style="fill:rgb(65,64,66);"/>
                <ellipse cx="84.833" cy="449.499" rx="6.052" ry="6.149" style="fill:rgb(65,64,66);"/>
            </g>
        </g>
    </g>
    <g transform="matrix(1,0,0,1,0,1024)">
        <g transform="matrix(1,0,0,1,-0.199,-1538.19)">
            <path d="M126.042,528.394L126.042,625.796C126.042,633.636 119.777,640 112.06,640L16.18,640C8.463,640 2.198,633.635 2.198,625.796L2.198,528.394C2.198,520.554 8.463,514.19 16.18,514.19L112.06,514.19C119.777,514.19 126.042,520.555 126.042,528.394Z" style="fill:rgb(54,61,82);stroke:rgb(33,37,50);stroke-width:4.03px;"/>
            <g>
                <path d="M23.098,593.628L23.098,597.01C50.468,621.194 77.839,621.194 105.209,597.01L105.209,593.628L23.098,593.628Z" style="fill:white;fill-rule:nonzero;"/>
                <path d="M23.098,593.628L38.431,595.063C39.238,595.131 39.742,595.61 39.944,596.498L40.347,603.364L53.662,604.389L54.469,598.138C54.603,597.387 55.108,596.874 55.982,596.601L72.324,596.601C73.198,596.874 73.703,597.386 73.837,598.138L74.644,604.389L87.959,603.364L88.362,596.498C88.564,595.61 89.068,595.132 89.875,595.063L105.208,593.628L105.208,568.419C107.226,565.754 109.108,562.988 110.857,560.119C108.503,556.088 105.713,552.399 102.485,549.052C99.593,550.418 96.836,552.024 94.213,553.868C91.523,551.34 88.564,549.154 85.336,547.31C85.807,543.826 86.076,540.342 86.143,536.858C82.175,534.945 78.039,533.511 73.735,532.554C71.987,535.492 70.44,538.532 69.095,541.674C65.8,541.196 62.504,541.196 59.21,541.674C57.865,538.531 56.318,535.491 54.57,532.554C50.266,533.51 46.13,534.945 42.162,536.858C42.229,540.342 42.498,543.826 42.969,547.31C39.741,549.154 36.782,551.341 34.092,553.868C31.469,552.024 28.712,550.418 25.82,549.052C22.592,552.399 19.801,556.089 17.448,560.119C19.196,562.988 21.079,565.755 23.097,568.419L23.097,593.628L23.098,593.628ZM23.098,597.01L23.098,601.007C23.098,629.29 105.109,629.29 105.209,601.007L105.209,597.01L91.692,598.24L91.188,605.311C91.054,605.994 90.583,606.438 89.776,606.643L73.434,607.77C72.627,607.77 72.089,607.394 71.82,606.643L70.811,599.982L57.496,599.982L56.487,606.643C56.218,607.394 55.68,607.77 54.873,607.77L38.531,606.643C37.724,606.438 37.253,605.994 37.119,605.311L36.615,598.24L23.098,597.01Z" style="fill:rgb(205,48,42);fill-rule:nonzero;"/>
                <path d="M61.228,586.147C61.228,589.631 67.079,589.631 67.079,586.147L67.079,577.334C67.079,573.85 61.228,573.85 61.228,577.334L61.228,586.147Z" style="fill:white;fill-rule:nonzero;"/>
                <ellipse cx="85.639" cy="578.564" rx="9.079" ry="9.223" style="fill:white;"/>
                <ellipse cx="42.667" cy="578.564" rx="9.079" ry="9.223" style="fill:white;"/>
            </g>
            <g>
                <ellipse cx="43.474" cy="579.179" rx="6.052" ry="6.149" style="fill:rgb(65,64,66);"/>
                <ellipse cx="84.832" cy="579.179" rx="6.052" ry="6.149" style="fill:rgb(65,64,66);"/>
            </g>
        </g>
        <g transform="matrix(1,0,0,1,0.001,-5.766726)">
            <g transform="matrix(1,0,0,1,-0.2,-1148.094774)">
                <path d="M126.042,528.394L126.042,625.796C126.042,633.636 119.777,640 112.06,640L16.18,640C8.463,640 2.198,633.635 2.198,625.796L2.198,528.394C2.198,520.554 8.463,514.19 16.18,514.19L112.06,514.19C119.777,514.19 126.042,520.555 126.042,528.394Z" style="fill:rgb(54,61,82);stroke:rgb(33,37,50);stroke-width:4.03px;"/>
                <g>
                    <path d="M23.098,593.628L23.098,597.01C50.468,621.194 77.839,621.194 105.209,597.01L105.209,593.628L23.098,593.628Z" style="fill:white;fill-rule:nonzero;"/>
                    <path d="M23.098,593.628L38.431,595.063C39.238,595.131 39.742,595.61 39.944,596.498L40.347,603.364L53.662,604.389L54.469,598.138C54.603,597.387 55.108,596.874 55.982,596.601L72.324,596.601C73.198,596.874 73.703,597.386 73.837,598.138L74.644,604.389L87.959,603.364L88.362,596.498C88.564,595.61 89.068,595.132 89.875,595.063L105.208,593.628L105.208,568.419C107.226,565.754 109.108,562.988 110.857,560.119C108.503,556.088 105.713,552.399 102.485,549.052C99.593,550.418 96.836,552.024 94.213,553.868C91.523,551.34 88.564,549.154 85.336,547.31C85.807,543.826 86.076,540.342 86.143,536.858C82.175,534.945 78.039,533.511 73.735,532.554C71.987,535.492 70.44,538.532 69.095,541.674C65.8,541.196 62.504,541.196 59.21,541.674C57.865,538.531 56.318,535.491 54.57,532.554C50.266,533.51 46.13,534.945 42.162,536.858C42.229,540.342 42.498,543.826 42.969,547.31C39.741,549.154 36.782,551.341 34.092,553.868C31.469,552.024 28.712,550.418 25.82,549.052C22.592,552.399 19.801,556.089 17.448,560.119C19.196,562.988 21.079,565.755 23.097,568.419L23.097,593.628L23.098,593.628ZM23.098,597.01L23.098,601.007C23.098,629.29 105.109,629.29 105.209,601.007L105.209,597.01L91.692,598.24L91.188,605.311C91.054,605.994 90.583,606.438 89.776,606.643L73.434,607.77C72.627,607.77 72.089,607.394 71.82,606.643L70.811,599.982L57.496,599.982L56.487,606.643C56.218,607.394 55.68,607.77 54.873,607.77L38.531,606.643C37.724,606.438 37.253,605.994 37.119,605.311L36.615,598.24L23.098,597.01Z" style="fill:rgb(205,48,42);fill-rule:nonzero;"/>
                    <path d="M61.228,586.147C61.228,589.631 67.079,589.631 67.079,586.147L67.079,577.334C67.079,573.85 61.228,573.85 61.228,577.334L61.228,586.147Z" style="fill:white;fill-rule:nonzero;"/>
                    <ellipse cx="85.639" cy="578.564" rx="9.079" ry="9.223" style="fill:white;"/>
                    <ellipse cx="42.667" cy="578.564" rx="9.079" ry="9.223" style="fill:white;"/>
                </g>
                <g>
                    <ellipse cx="43.474" cy="579.179" rx="6.052" ry="6.149" style="fill:rgb(65,64,66);"/>
                    <ellipse cx="84.832" cy="579.179" rx="6.052" ry="6.149" style="fill:rgb(65,64,66);"/>
                </g>
            </g>
        </g>
        <g transform="matrix(1,0,0,1,-0.199,-897.6425)">
            <path d="M126.042,528.394L126.042,625.796C126.042,633.636 119.777,640 112.06,640L16.18,640C8.463,640 2.198,633.635 2.198,625.796L2.198,528.394C2.198,520.554 8.463,514.19 16.18,514.19L112.06,514.19C119.777,514.19 126.042,520.555 126.042,528.394Z" style="fill:rgb(54,61,82);stroke:rgb(33,37,50);stroke-width:4.03px;"/>
            <g>
                <path d="M23.098,593.628L23.098,597.01C50.468,621.194 77.839,621.194 105.209,597.01L105.209,593.628L23.098,593.628Z" style="fill:white;fill-rule:nonzero;"/>
                <path d="M23.098,593.628L38.431,595.063C39.238,595.131 39.742,595.61 39.944,596.498L40.347,603.364L53.662,604.389L54.469,598.138C54.603,597.387 55.108,596.874 55.982,596.601L72.324,596.601C73.198,596.874 73.703,597.386 73.837,598.138L74.644,604.389L87.959,603.364L88.362,596.498C88.564,595.61 89.068,595.132 89.875,595.063L105.208,593.628L105.208,568.419C107.226,565.754 109.108,562.988 110.857,560.119C108.503,556.088 105.713,552.399 102.485,549.052C99.593,550.418 96.836,552.024 94.213,553.868C91.523,551.34 88.564,549.154 85.336,547.31C85.807,543.826 86.076,540.342 86.143,536.858C82.175,534.945 78.039,533.511 73.735,532.554C71.987,535.492 70.44,538.532 69.095,541.674C65.8,541.196 62.504,541.196 59.21,541.674C57.865,538.531 56.318,535.491 54.57,532.554C50.266,533.51 46.13,534.945 42.162,536.858C42.229,540.342 42.498,543.826 42.969,547.31C39.741,549.154 36.782,551.341 34.092,553.868C31.469,552.024 28.712,550.418 25.82,549.052C22.592,552.399 19.801,556.089 17.448,560.119C19.196,562.988 21.079,565.755 23.097,568.419L23.097,593.628L23.098,593.628ZM23.098,597.01L23.098,601.007C23.098,629.29 105.109,629.29 105.209,601.007L105.209,597.01L91.692,598.24L91.188,605.311C91.054,605.994 90.583,606.438 89.776,606.643L73.434,607.77C72.627,607.77 72.089,607.394 71.82,606.643L70.811,599.982L57.496,599.982L56.487,606.643C56.218,607.394 55.68,607.77 54.873,607.77L38.531,606.643C37.724,606.438 37.253,605.994 37.119,605.311L36.615,598.24L23.098,597.01Z" style="fill:rgb(205,48,42);fill-rule:nonzero;"/>
                <path d="M61.228,586.147C61.228,589.631 67.079,589.631 67.079,586.147L67.079,577.334C67.079,573.85 61.228,573.85 61.228,577.334L61.228,586.147Z" style="fill:white;fill-rule:nonzero;"/>
                <ellipse cx="85.639" cy="578.564" rx="9.079" ry="9.223" style="fill:white;"/>
                <ellipse cx="42.667" cy="578.564" rx="9.079" ry="9.223" style="fill:white;"/>
            </g>
            <g>
                <ellipse cx="43.474" cy="579.179" rx="6.052" ry="6.149" style="fill:rgb(236,34,7);"/>
                <ellipse cx="84.832" cy="579.179" rx="6.052" ry="6.149" style="fill:rgb(236,34,7);"/>
            </g>
        </g>
        <g transform="matrix(1,0,0,1,0.001,1275.328274)">
            <g transform="matrix(1,0,0,1,-0.2,-1148.094774)">
                <path d="M126.042,528.394L126.042,625.796C126.042,633.636 119.777,640 112.06,640L16.18,640C8.463,640 2.198,633.635 2.198,625.796L2.198,528.394C2.198,520.554 8.463,514.19 16.18,514.19L112.06,514.19C119.777,514.19 126.042,520.555 126.042,528.394Z" style="fill:rgb(54,61,82);stroke:rgb(33,37,50);stroke-width:4.03px;"/>
                <g>
                    <path d="M23.098,593.628L23.098,597.01C50.468,621.194 77.839,621.194 105.209,597.01L105.209,593.628L23.098,593.628Z" style="fill:white;fill-rule:nonzero;"/>
                    <path d="M23.098,593.628L38.431,595.063C39.238,595.131 39.742,595.61 39.944,596.498L40.347,603.364L53.662,604.389L54.469,598.138C54.603,597.387 55.108,596.874 55.982,596.601L72.324,596.601C73.198,596.874 73.703,597.386 73.837,598.138L74.644,604.389L87.959,603.364L88.362,596.498C88.564,595.61 89.068,595.132 89.875,595.063L105.208,593.628L105.208,568.419C107.226,565.754 109.108,562.988 110.857,560.119C108.503,556.088 105.713,552.399 102.485,549.052C99.593,550.418 96.836,552.024 94.213,553.868C91.523,551.34 88.564,549.154 85.336,547.31C85.807,543.826 86.076,540.342 86.143,536.858C82.175,534.945 78.039,533.511 73.735,532.554C71.987,535.492 70.44,538.532 69.095,541.674C65.8,541.196 62.504,541.196 59.21,541.674C57.865,538.531 56.318,535.491 54.57,532.554C50.266,533.51 46.13,534.945 42.162,536.858C42.229,540.342 42.498,543.826 42.969,547.31C39.741,549.154 36.782,551.341 34.092,553.868C31.469,552.024 28.712,550.418 25.82,549.052C22.592,552.399 19.801,556.089 17.448,560.119C19.196,562.988 21.079,565.755 23.097,568.419L23.097,593.628L23.098,593.628ZM23.098,597.01L23.098,601.007C23.098,629.29 105.109,629.29 105.209,601.007L105.209,597.01L91.692,598.24L91.188,605.311C91.054,605.994 90.583,606.438 89.776,606.643L73.434,607.77C72.627,607.77 72.089,607.394 71.82,606.643L70.811,599.982L57.496,599.982L56.487,606.643C56.218,607.394 55.68,607.77 54.873,607.77L38.531,606.643C37.724,606.438 37.253,605.994 37.119,605.311L36.615,598.24L23.098,597.01Z" style="fill:rgb(205,48,42);fill-rule:nonzero;"/>
                    <path d="M61.228,586.147C61.228,589.631 67.079,589.631 67.079,586.147L67.079,577.334C67.079,573.85 61.228,573.85 61.228,577.334L61.228,586.147Z" style="fill:white;fill-rule:nonzero;"/>
                    <ellipse cx="85.639" cy="578.564" rx="9.079" ry="9.223" style="fill:white;"/>
                    <ellipse cx="42.667" cy="578.564" rx="9.079" ry="9.223" style="fill:white;"/>
                </g>
                <g>
                    <ellipse cx="43.474" cy="579.179" rx="6.052" ry="6.149" style="fill:rgb(65,64,66);"/>
                    <ellipse cx="84.832" cy="579.179" rx="6.052" ry="6.149" style="fill:rgb(65,64,66);"/>
                </g>
            </g>
        </g>
    </g>
</svg>
