<?xml version="1.0" encoding="UTF-8" standalone="no"?><!DOCTYPE svg PUBLIC "-//W3C//DTD SVG 1.1//EN" "http://www.w3.org/Graphics/SVG/1.1/DTD/svg11.dtd"><svg width="100%" height="100%" viewBox="0 0 128 640" version="1.1" xmlns="http://www.w3.org/2000/svg" xmlns:xlink="http://www.w3.org/1999/xlink" xml:space="preserve" xmlns:serif="http://www.serif.com/" style="fill-rule:evenodd;clip-rule:evenodd;"><g><g><g><g><g><g><g><clipPath id="_clip1"><rect x="0" y="510.131" width="127.84" height="129.869"/></clipPath><g clip-path="url(#_clip1)"><path d="M125.843,526.365l0,97.402c0,7.84 -6.265,14.204 -13.982,14.204l-95.88,0c-7.717,0 -13.982,-6.365 -13.982,-14.204l0,-97.402c0,-7.84 6.265,-14.204 13.982,-14.204l95.88,0c7.717,0 13.982,6.365 13.982,14.204Z" style="fill:#363d52;stroke:#212532;stroke-width:4.03px;"/><g><path d="M22.899,591.599l0,3.382c27.37,24.184 54.741,24.184 82.111,0l0,-3.382l-82.111,0Z" style="fill:#fff;fill-rule:nonzero;"/><path d="M22.899,591.599l15.333,1.435c0.807,0.068 1.311,0.547 1.513,1.435l0.403,6.866l13.315,1.025l0.807,-6.251c0.134,-0.751 0.639,-1.264 1.513,-1.537l16.342,0c0.874,0.273 1.379,0.785 1.513,1.537l0.807,6.251l13.315,-1.025l0.403,-6.866c0.202,-0.888 0.706,-1.366 1.513,-1.435l15.333,-1.435l0,-25.209c2.018,-2.665 3.9,-5.431 5.649,-8.301c-2.354,-4.031 -5.144,-7.72 -8.372,-11.067c-2.892,1.366 -5.649,2.972 -8.272,4.816c-2.69,-2.528 -5.649,-4.714 -8.877,-6.558c0.471,-3.484 0.74,-6.968 0.807,-10.452c-3.968,-1.913 -8.104,-3.347 -12.408,-4.304c-1.748,2.938 -3.295,5.978 -4.64,9.12c-3.295,-0.478 -6.591,-0.478 -9.885,0c-1.345,-3.143 -2.892,-6.183 -4.64,-9.12c-4.304,0.956 -8.44,2.391 -12.408,4.304c0.067,3.484 0.336,6.968 0.807,10.452c-3.228,1.844 -6.187,4.031 -8.877,6.558c-2.623,-1.844 -5.38,-3.45 -8.272,-4.816c-3.228,3.347 -6.019,7.037 -8.372,11.067c1.748,2.869 3.631,5.636 5.649,8.301l0,25.209l0.001,0Zm-0,3.382l0,3.997c0,28.283 82.011,28.283 82.111,0l0,-3.997l-13.517,1.23l-0.504,7.071c-0.134,0.683 -0.605,1.127 -1.412,1.332l-16.342,1.127c-0.807,0 -1.345,-0.376 -1.614,-1.127l-1.009,-6.661l-13.315,0l-1.009,6.661c-0.269,0.751 -0.807,1.127 -1.614,1.127l-16.342,-1.127c-0.807,-0.205 -1.278,-0.649 -1.412,-1.332l-0.504,-7.071l-13.517,-1.23Z" style="fill:#47bf55;fill-rule:nonzero;"/><path d="M61.029,584.118c0,3.484 5.851,3.484 5.851,0l0,-8.813c0,-3.484 -5.851,-3.484 -5.851,0l0,8.813Z" style="fill:#fff;fill-rule:nonzero;"/><ellipse cx="85.44" cy="576.535" rx="9.079" ry="9.223" style="fill:#fff;"/><ellipse cx="42.468" cy="576.535" rx="9.079" ry="9.223" style="fill:#fff;"/></g><g><ellipse cx="43.275" cy="577.15" rx="6.052" ry="6.149" style="fill:#414042;"/><ellipse cx="84.633" cy="577.15" rx="6.052" ry="6.149" style="fill:#414042;"/></g></g></g></g></g></g></g></g></g><g><g><path d="M126.034,398.525l0,97.402c0,7.84 -6.265,14.204 -13.982,14.204l-95.88,0c-7.717,0 -13.982,-6.365 -13.982,-14.204l0,-97.402c0,-7.84 6.265,-14.204 13.982,-14.204l95.88,0c7.717,0 13.982,6.365 13.982,14.204Z" style="fill:#363d52;stroke:#212532;stroke-width:4.03px;"/><g><path d="M23.09,463.759l0,3.382c27.37,24.184 54.741,24.184 82.111,0l0,-3.382l-82.111,0Z" style="fill:#fff;fill-rule:nonzero;"/><path d="M23.09,463.759l15.333,1.435c0.807,0.068 1.311,0.547 1.513,1.435l0.403,6.866l13.315,1.025l0.807,-6.251c0.134,-0.751 0.639,-1.264 1.513,-1.537l16.342,0c0.874,0.273 1.379,0.785 1.513,1.537l0.807,6.251l13.315,-1.025l0.403,-6.866c0.202,-0.888 0.706,-1.366 1.513,-1.435l15.333,-1.435l0,-25.209c2.018,-2.665 3.9,-5.431 5.649,-8.3c-2.354,-4.031 -5.144,-7.72 -8.372,-11.067c-2.892,1.366 -5.649,2.972 -8.272,4.816c-2.69,-2.528 -5.649,-4.714 -8.877,-6.558c0.471,-3.484 0.74,-6.968 0.807,-10.452c-3.968,-1.913 -8.104,-3.347 -12.408,-4.304c-1.748,2.938 -3.295,5.978 -4.64,9.12c-3.295,-0.478 -6.591,-0.478 -9.885,0c-1.345,-3.143 -2.892,-6.183 -4.64,-9.12c-4.304,0.956 -8.44,2.391 -12.408,4.304c0.067,3.484 0.336,6.968 0.807,10.452c-3.228,1.844 -6.187,4.031 -8.877,6.558c-2.623,-1.844 -5.38,-3.45 -8.272,-4.816c-3.228,3.347 -6.019,7.037 -8.372,11.067c1.748,2.869 3.631,5.636 5.649,8.3l0,25.209l0.001,0Zm-0,3.382l0,3.997c0,28.283 82.011,28.283 82.111,0l0,-3.997l-13.517,1.23l-0.504,7.071c-0.134,0.683 -0.605,1.127 -1.412,1.332l-16.342,1.127c-0.807,0 -1.345,-0.376 -1.614,-1.127l-1.009,-6.661l-13.315,0l-1.009,6.661c-0.269,0.751 -0.807,1.127 -1.614,1.127l-16.342,-1.127c-0.807,-0.205 -1.278,-0.649 -1.412,-1.332l-0.504,-7.071l-13.517,-1.23Z" style="fill:#478cbf;fill-rule:nonzero;"/><path d="M61.22,456.278c0,3.484 5.851,3.484 5.851,0l0,-8.813c0,-3.484 -5.851,-3.484 -5.851,0l0,8.813Z" style="fill:#fff;fill-rule:nonzero;"/><ellipse cx="85.631" cy="448.695" rx="9.079" ry="9.223" style="fill:#fff;"/><ellipse cx="42.659" cy="448.695" rx="9.079" ry="9.223" style="fill:#fff;"/></g><g><ellipse cx="43.466" cy="449.31" rx="6.052" ry="6.149" style="fill:#414042;"/><ellipse cx="84.824" cy="449.31" rx="6.052" ry="6.149" style="fill:#414042;"/></g></g></g><g><g><path d="M125.842,271.299l0,97.402c0,7.84 -6.265,14.204 -13.982,14.204l-95.88,0c-7.717,0 -13.982,-6.365 -13.982,-14.204l0,-97.402c0,-7.84 6.265,-14.204 13.982,-14.204l95.88,0c7.717,0 13.982,6.365 13.982,14.204Z" style="fill:#363d52;stroke:#212532;stroke-width:4.03px;"/><g><path d="M22.898,336.533l0,3.382c27.37,24.184 54.741,24.184 82.111,0l0,-3.382l-82.111,0Z" style="fill:#fff;fill-rule:nonzero;"/><path d="M22.898,336.533l15.333,1.435c0.807,0.068 1.311,0.547 1.513,1.435l0.403,6.866l13.315,1.025l0.807,-6.251c0.134,-0.751 0.639,-1.264 1.513,-1.537l16.342,0c0.874,0.273 1.379,0.785 1.513,1.537l0.807,6.251l13.315,-1.025l0.403,-6.866c0.202,-0.888 0.706,-1.366 1.513,-1.435l15.333,-1.435l0,-25.209c2.018,-2.665 3.9,-5.431 5.649,-8.3c-2.354,-4.031 -5.144,-7.72 -8.372,-11.067c-2.892,1.366 -5.649,2.972 -8.272,4.816c-2.69,-2.528 -5.649,-4.714 -8.877,-6.558c0.471,-3.484 0.74,-6.968 0.807,-10.452c-3.968,-1.913 -8.104,-3.347 -12.408,-4.304c-1.748,2.938 -3.295,5.978 -4.64,9.12c-3.295,-0.478 -6.591,-0.478 -9.885,0c-1.345,-3.143 -2.892,-6.183 -4.64,-9.12c-4.304,0.956 -8.44,2.391 -12.408,4.304c0.067,3.484 0.336,6.968 0.807,10.452c-3.228,1.844 -6.187,4.031 -8.877,6.558c-2.623,-1.844 -5.38,-3.45 -8.272,-4.816c-3.228,3.347 -6.019,7.037 -8.372,11.067c1.748,2.869 3.631,5.636 5.649,8.3l0,25.209l0.001,0Zm-0,3.382l0,3.997c0,28.283 82.011,28.283 82.111,0l0,-3.997l-13.517,1.23l-0.504,7.071c-0.134,0.683 -0.605,1.127 -1.412,1.332l-16.342,1.127c-0.807,0 -1.345,-0.376 -1.614,-1.127l-1.009,-6.661l-13.315,0l-1.009,6.661c-0.269,0.751 -0.807,1.127 -1.614,1.127l-16.342,-1.127c-0.807,-0.205 -1.278,-0.649 -1.412,-1.332l-0.504,-7.071l-13.517,-1.23Z" style="fill:#ecdc25;fill-rule:nonzero;"/><path d="M61.028,329.052c0,3.484 5.851,3.484 5.851,0l0,-8.813c0,-3.484 -5.851,-3.484 -5.851,0l0,8.813Z" style="fill:#fff;fill-rule:nonzero;"/><ellipse cx="85.439" cy="321.469" rx="9.079" ry="9.223" style="fill:#fff;"/><ellipse cx="42.467" cy="321.469" rx="9.079" ry="9.223" style="fill:#fff;"/></g><g><ellipse cx="43.274" cy="322.084" rx="6.052" ry="6.149" style="fill:#414042;"/><ellipse cx="84.632" cy="322.084" rx="6.052" ry="6.149" style="fill:#414042;"/></g></g></g><g><g><path d="M125.842,145.489l0,97.402c0,7.84 -6.265,14.204 -13.982,14.204l-95.88,0c-7.717,0 -13.982,-6.365 -13.982,-14.204l0,-97.402c0,-7.84 6.265,-14.204 13.982,-14.204l95.88,0c7.717,0 13.982,6.365 13.982,14.204Z" style="fill:#363d52;stroke:#212532;stroke-width:4.03px;"/><g><path d="M22.898,210.723l0,3.382c27.37,24.184 54.741,24.184 82.111,0l0,-3.382l-82.111,0Z" style="fill:#fff;fill-rule:nonzero;"/><path d="M22.898,210.723l15.333,1.435c0.807,0.068 1.311,0.547 1.513,1.435l0.403,6.866l13.315,1.025l0.807,-6.251c0.134,-0.751 0.639,-1.264 1.513,-1.537l16.342,0c0.874,0.273 1.379,0.785 1.513,1.537l0.807,6.251l13.315,-1.025l0.403,-6.866c0.202,-0.888 0.706,-1.366 1.513,-1.435l15.333,-1.435l0,-25.209c2.018,-2.665 3.9,-5.431 5.649,-8.3c-2.354,-4.031 -5.144,-7.72 -8.372,-11.067c-2.892,1.366 -5.649,2.972 -8.272,4.816c-2.69,-2.528 -5.649,-4.714 -8.877,-6.558c0.471,-3.484 0.74,-6.968 0.807,-10.452c-3.968,-1.913 -8.104,-3.347 -12.408,-4.304c-1.748,2.938 -3.295,5.978 -4.64,9.12c-3.295,-0.478 -6.591,-0.478 -9.885,0c-1.345,-3.143 -2.892,-6.183 -4.64,-9.12c-4.304,0.956 -8.44,2.391 -12.408,4.304c0.067,3.484 0.336,6.968 0.807,10.452c-3.228,1.844 -6.187,4.031 -8.877,6.558c-2.623,-1.844 -5.38,-3.45 -8.272,-4.816c-3.228,3.347 -6.019,7.037 -8.372,11.067c1.748,2.869 3.631,5.636 5.649,8.3l0,25.209l0.001,0Zm-0,3.382l0,3.997c0,28.283 82.011,28.283 82.111,0l0,-3.997l-13.517,1.23l-0.504,7.071c-0.134,0.683 -0.605,1.127 -1.412,1.332l-16.342,1.127c-0.807,0 -1.345,-0.376 -1.614,-1.127l-1.009,-6.661l-13.315,0l-1.009,6.661c-0.269,0.751 -0.807,1.127 -1.614,1.127l-16.342,-1.127c-0.807,-0.205 -1.278,-0.649 -1.412,-1.332l-0.504,-7.071l-13.517,-1.23Z" style="fill:#cd302a;fill-rule:nonzero;"/><path d="M61.028,203.242c0,3.484 5.851,3.484 5.851,0l0,-8.813c0,-3.484 -5.851,-3.484 -5.851,0l0,8.813Z" style="fill:#fff;fill-rule:nonzero;"/><ellipse cx="85.439" cy="195.659" rx="9.079" ry="9.223" style="fill:#fff;"/><ellipse cx="42.467" cy="195.659" rx="9.079" ry="9.223" style="fill:#fff;"/></g><g><ellipse cx="43.274" cy="196.274" rx="6.052" ry="6.149" style="fill:#ff1000;"/><ellipse cx="84.632" cy="196.274" rx="6.052" ry="6.149" style="fill:#ff1000;"/></g></g><g><path d="M126.034,15.679l0,97.402c0,7.84 -6.265,14.204 -13.982,14.204l-95.88,0c-7.717,0 -13.982,-6.365 -13.982,-14.204l0,-97.402c0,-7.84 6.265,-14.204 13.982,-14.204l95.88,0c7.717,0 13.982,6.365 13.982,14.204Z" style="fill:#363d52;stroke:#212532;stroke-width:4.03px;"/><g><path d="M23.09,80.913l0,3.382c27.37,24.184 54.741,24.184 82.111,0l0,-3.382l-82.111,0Z" style="fill:#fff;fill-rule:nonzero;"/><path d="M23.09,80.913l15.333,1.435c0.807,0.068 1.311,0.547 1.513,1.435l0.403,6.866l13.315,1.025l0.807,-6.251c0.134,-0.751 0.639,-1.264 1.513,-1.537l16.342,0c0.874,0.273 1.379,0.785 1.513,1.537l0.807,6.251l13.315,-1.025l0.403,-6.866c0.202,-0.888 0.706,-1.366 1.513,-1.435l15.333,-1.435l0,-25.209c2.018,-2.665 3.9,-5.431 5.649,-8.3c-2.354,-4.031 -5.144,-7.72 -8.372,-11.067c-2.892,1.366 -5.649,2.972 -8.272,4.816c-2.69,-2.528 -5.649,-4.714 -8.877,-6.558c0.471,-3.484 0.74,-6.968 0.807,-10.452c-3.968,-1.913 -8.104,-3.347 -12.408,-4.304c-1.748,2.938 -3.295,5.978 -4.64,9.12c-3.295,-0.478 -6.591,-0.478 -9.885,0c-1.345,-3.143 -2.892,-6.183 -4.64,-9.12c-4.304,0.956 -8.44,2.391 -12.408,4.304c0.067,3.484 0.336,6.968 0.807,10.452c-3.228,1.844 -6.187,4.031 -8.877,6.558c-2.623,-1.844 -5.38,-3.45 -8.272,-4.816c-3.228,3.347 -6.019,7.037 -8.372,11.067c1.748,2.869 3.631,5.636 5.649,8.3l0,25.209l0.001,0Zm-0,3.382l0,3.997c0,28.283 82.011,28.283 82.111,0l0,-3.997l-13.517,1.23l-0.504,7.071c-0.134,0.683 -0.605,1.127 -1.412,1.332l-16.342,1.127c-0.807,0 -1.345,-0.376 -1.614,-1.127l-1.009,-6.661l-13.315,0l-1.009,6.661c-0.269,0.751 -0.807,1.127 -1.614,1.127l-16.342,-1.127c-0.807,-0.205 -1.278,-0.649 -1.412,-1.332l-0.504,-7.071l-13.517,-1.23Z" style="fill:#2113e9;fill-rule:nonzero;"/><path d="M61.22,73.432c0,3.484 5.851,3.484 5.851,0l0,-8.813c0,-3.484 -5.851,-3.484 -5.851,0l0,8.813Z" style="fill:#fff;fill-rule:nonzero;"/><ellipse cx="85.631" cy="65.849" rx="9.079" ry="9.223" style="fill:#fff;"/><ellipse cx="42.659" cy="65.849" rx="9.079" ry="9.223" style="fill:#fff;"/></g><g><ellipse cx="43.466" cy="66.464" rx="6.052" ry="6.149" style="fill:#ff1000;"/><ellipse cx="84.824" cy="66.464" rx="6.052" ry="6.149" style="fill:#ff1000;"/></g></g></g></svg>